<svg id="Capa_1" data-name="Capa 1" xmlns="http://www.w3.org/2000/svg" viewBox="0 0 480.95 261.23"><defs><style>.cls-1{fill:#fff;}</style></defs><title>titulo</title><path class="cls-1" d="M76.14,41.28c3.68-1.26,6.91-2.18,9.46-2.9,2.22-.63,3.32-.61,3.52.13,0,.14-.08.34-.13.83-1.91,4.34-1.35,10.09.82,17.75.92,3.88,1.51,6.58,1.73,8A2,2,0,0,1,90,66.93c-4.06,1.17-6.54,0-7.07-1.76-.2-.69-.4-1.38-.61-2.06C79,52,73.33,49,68,50.67a8.62,8.62,0,0,0-5.23,3.77c-3,5-3.73,13.18-2.51,24.58a154.7,154.7,0,0,0,8.08,34.49c4.14,11.86,8.82,21.43,13.83,28.61s9.6,10.18,14,8.77c7.74-2.47,9.79-9.59,6.19-21.8-.53-1.76-1.64-5-1.94-6a6.82,6.82,0,0,1-.47-2.1c-.16-1.07.86-2,3-2.62,3-.87,4.74-.4,5.2,1.22.12.44.31,1.66.47,2.25a47.1,47.1,0,0,1,2,14.25,28.52,28.52,0,0,1-1.37,8.69c-1.84,4.86-7,10.39-15.25,13.1-11.55,3.82-20.45,2.92-28.33-3S52.1,141.77,44.93,129c-3.39-5.92-9.22-2.71-10-4.68l-.06-.15c-1-2.41,4.63-2.73,3.83-8.67q-1-2.42-1.94-4.83c-6.12-15.2-6.58-28.94-.89-41.08,5.72-12,16.83-20.86,32.56-25.75C69.92,43.32,72.45,42.54,76.14,41.28Z" transform="translate(-31.83 -11.68)"/><path class="cls-1" d="M214.57,122.84c.26,2.9-3.16,8.31-7.2,8.76q-11.07,1.23-22.09,2.9c-5.05.77-9.08,2.38-12,4.91a4,4,0,0,1-1.59,1.06c-1.14.2-1.9-.75-2.25-2.71-.17-.9.56-1.81,2-2.85,4.17-2.44,6.15-5.86,5.93-10-.75-4.53-3.69-15.39-8.94-32.37-5.15.71-9.2,1.31-11.83,1.81a127,127,0,0,0-15.78,3.83c-.24,15.89.07,25.88.32,29.75.24,1.05.2,4.2.51,5.54.65,2.84,2.86,3.9,6.49,3.26.75,0,1.24.83,1.63,2.62l.06.3c.13.6-.09,1-.8,1.12a154.85,154.85,0,0,0-22.76,6.75.71.71,0,0,1-.9-.55c-.36-1.34,1.12-3.79,2.69-4.82,2.8-2.15,4.25-5.5,4.35-10.11.18-4.93-.1-14.32-.32-28.28a7,7,0,0,0-3.79-5.08c-2-.94-3.13-1.46-3.23-1.9l-.08-.3c-.22-2.32,6.54-.63,7.21-8.47-.2-30-.41-48.69-2.06-56.33a18.32,18.32,0,0,1-.26-2.92c-9.15,1.92-16.26,9.31-14.23,17.65l.14.59c.15.6-.45,1.05-1.79,1.38a4,4,0,0,1-4.6-2.82c-.07-.3,0-.93-.14-2,.59-12,8.39-17.76,24.89-21.14,4-.81,10.13-1.71,18.38-2.68,8.11-.79,13.73-1.33,16.87-1.8,5.75-.85,9.79-2.47,12.15-4.94a3.18,3.18,0,0,1,1.35-.64c1.23-.15,2,.67,2.29,2.65.21,1.67,0,2.78-.86,3a29.3,29.3,0,0,0-6,3.1c-.5.22-.59,2.09-.15,5.28C179.46,35.65,184,53,191.37,78.74c2.77,5.35,8.25,3.31,8.82,5.41v.16c.28,2.42-5.19,1.84-4.93,7.68,5,17.75,8.29,29.4,10.25,34.89a9.1,9.1,0,0,1,1,0c1.45-.16,2.83-1.08,4.28-2.77,1.33-1.52,2.14-2.37,2.58-2.41C214.15,121.65,214.49,122.08,214.57,122.84ZM140.73,93.32c8.6-2.33,16.69-4,24.34-5.36l1.88-.32q-10-30.63-20.87-61c-.51.09-2,.53-2.72.66Q141.26,60.36,140.73,93.32Z" transform="translate(-31.83 -11.68)"/><path class="cls-1" d="M321.69,140.73c-.1,1.07-.87,1.61-2.16,1.65-3.28-.15-5.56-.18-7-.29-14-1.08-22.88-6.37-26.77-13.85s-5.34-16.83-6.25-25.74c-1.43-13-4.28-24.71-20.33-24.51-3,.05-4.62-1.13-4.68-3.43a1.26,1.26,0,0,1,.3-.93c21-4.87,31.22-20.88,31.88-42.54.28-9.48-4.82-14.43-15.3-14.47-7.32,0-11.67,1-13,2.85-3.77,4.2-5.22,21.1-4.46,50.36.18,6.89.52,14.24.87,22s.66,14.39.93,19.6.34,8.11.36,8.72a2.54,2.54,0,0,0,1.82,2.42l.58,0c2.06,0,3.1,1,3.13,3.32,0,1.38-.84,2-2.73,2q-15.78.3-31.53,1.48c-1.17.09-1.78-.32-1.85-1.24-.16-2,1.32-3.79,2.05-3.84,2.92-.37,3.21-.38,3-3.9-.38-5.66-1.06-17.74-2.15-36.09-1.83-6-7.28-4.24-7.47-6.68-.23-3.06,6.32-.63,6.77-8.33-.8-19.14-1.31-32-1.75-38.73-.19-5.35-.89-8.4-7.25-9.62-1.56.11-4.48-1.49-4.7-4.09-.09-1.06.92-1.61,3.2-1.79,1.22-.1,6.49,0,10.69-.28,4-.25,10.47-.77,19-1.52,8.57-.6,16.63-1,23.82-1.3s11.06-.34,11.58-.34c10.71.2,18.53,3.19,23.44,8.67a25.36,25.36,0,0,1,6.41,18.95c-1.33,18.53-16.57,29.63-36.75,34.8l1.75,0c47.58,1.6,17.14,63.52,42.67,65.2C321.09,139.44,321.76,140,321.69,140.73Z" transform="translate(-31.83 -11.68)"/><path class="cls-1" d="M423.37,34.86c-.94,4-3.68,9.52-8.08,16.53-1.48,2.65-1.44,3.28-3.93,2.73-2.14-.48-4.81-3.4-4.52-4.75.45-1.32,3-6.72,3.44-8.66,1-4.77-2.18-8.07-14-10.37-1.37-.27-5.2-.67-7.09-1-1.55-.28-3.46,4.52-3.83,6.63-2.93,8.66-6.25,22.86-10,42.89a6.48,6.48,0,0,0,3.21,4.92c1.88,1.27,2.68,2.2,2.54,3-.52,2.86-6-.93-8.15,6-4.09,23.7-5.49,36.21-4.15,37.85.24.35,1.09.65,2.54.92l2.75.51c2,.38,3,1,2.78,1.93-.55,2.86-1.21,4-4.65,3.33-5.58-1.16-18.05-3.68-37.75-6-.87-.1-1.21-.91-1-2.59.17-1.52,1.58-2.29,4.38-2.1,3.25.08,4.85.3,5.21-2.44.39-1.8,2.06-13.64,5.39-35.45-.53-6.88-6.25-6-6-8.47l0-.15c.39-3.2,6.15.75,8.11-6.71.77-4.68,1.53-10.46,2.58-17.12s1.72-11.83,2.35-15.3l.83-6.22c.22-1.68.73-4.23.83-5-.38-5-4.34-5.69-10.92-6.29-10.9-1.23-13.89,2.87-14.5,9.42-.13,1.37-.28,4.74-.38,5.81-.22,2.29-1,3.59-2.37,3.62l-2.69-.24a11,11,0,0,1-2.5-.36c-.83-.23-1.13-.71-1-1.78,0-.46.53-2.26.66-3.94.16-1.84.29-7.67.49-10.11.55-6.87,2.75-10.08,6.59-9.74q3.58.33,7.15.69c34.36,3.49,62.09,8.24,83.23,11.64C423.46,29.06,424.25,31.13,423.37,34.86Z" transform="translate(-31.83 -11.68)"/><path class="cls-1" d="M488,163.63c-1.13,2.68-6.76,5.82-10.59,4.3q-10.53-4.19-21.17-7.93c-4.87-1.71-9.22-2.19-13-1.34a4,4,0,0,1-1.9.19c-1.11-.36-1.35-1.56-.74-3.46.28-.87,1.35-1.34,3.13-1.57,4.87-.19,8.25-2.27,10-6,1.46-4.36,4-15.33,7.26-32.8-4.93-1.79-8.82-3.18-11.39-4a128.25,128.25,0,0,0-15.82-4C426,120.88,421.61,129.85,420,133.39c-.28,1-1.8,3.8-2.15,5.13-.76,2.82.7,4.79,4.22,5.93.67.34.71,1.31.21,3.08l-.08.29c-.17.59-.53.81-1.24.61a155,155,0,0,0-23.28-4.71.7.7,0,0,1-.54-.91c.31-1.35,2.77-2.82,4.63-3q5.2-.87,8.58-6.88c2.47-4.27,6.62-12.71,13-25.13a7,7,0,0,0-1-6.27c-1.34-1.78-2.08-2.75-2-3.2l.08-.3c.89-2.15,6.07,2.52,10.35-4.09,13.89-26.56,22.49-43.19,24.61-50.72a18.63,18.63,0,0,1,1.15-2.7c-9-2.6-18.77.59-20.89,8.91l-.15.59c-.15.59-.9.72-2.23.37a3.92,3.92,0,0,1-2.74-4.64c.07-.3.39-.85.82-1.85,6.12-10.28,15.73-11.76,32-7q5.89,1.76,17.63,6.29c7.6,3.13,12.87,5.32,15.9,6.39,5.54,2,9.92,2.46,13.2,1.4a3.27,3.27,0,0,1,1.51.07c1.17.45,1.52,1.56.81,3.42-.61,1.58-1.32,2.45-2.21,2.28a29.45,29.45,0,0,0-6.79-.09c-.56,0-1.52,1.56-2.63,4.58-3.24,8.77-7.3,26.21-12.87,52.44,0,6,5.84,6.84,5.35,9l0,.14c-.9,2.28-5.53-.84-8.06,4.44-3.85,18-6.42,29.88-7.24,35.64.41.17.77.48.91.53,1.39.55,3.06.39,5.16-.4,1.91-.72,3-1.08,3.46-.91C488.14,162.38,488.24,162.92,488,163.63Zm-52-61c8.71,2,16.71,4.29,24.16,6.73l1.82.6q5.53-31.73,10.12-63.7c-.51-.16-2.07-.49-2.74-.7Q451.86,73.8,435.91,102.65Z" transform="translate(-31.83 -11.68)"/><path class="cls-1" d="M134.41,250.77a3.94,3.94,0,0,1-.25-1,6.9,6.9,0,0,1,.25-1.53l3.05-18.45q3.82-23,9.8-47.33a22.64,22.64,0,0,0,.51-2.42v-.38a1,1,0,0,0-.38-.89,1.35,1.35,0,0,0-1-.13,91,91,0,0,0-9.29,1.91q-3.69.65-14,2.93l-7.64,1.65a7.62,7.62,0,0,1-3.31.25.92.92,0,0,1-.76-.89,1.91,1.91,0,0,1,.13-.63,1.31,1.31,0,0,1,.25-.51,9.33,9.33,0,0,1,3.57-1.27l19.46-4.2q7.89-1.78,11.84-2.42a4.68,4.68,0,0,0,2.16-.89,2.72,2.72,0,0,0,.89-1.91,23.66,23.66,0,0,1,1-4.07,1.85,1.85,0,0,1,.7-1.21,1,1,0,0,1,1.08-.19,1.87,1.87,0,0,1,.89,2.16l-.51,2.8-.13.64c0,.85.77,1.23,2.29,1.14q4.08-.63,5.86-.89l18.19-1.78,7.89-.89h2.93a1.2,1.2,0,0,1,1.14,1.15v.25a1.57,1.57,0,0,1-.89,1.4l-1.65.38q-12.35,1-18.2,1.78L160,176.47l-5.86.76c-1.7.09-2.75,1.1-3.18,3.06q-6.75,28.25-10.81,53.44l-2.42,14.75a4.2,4.2,0,0,1-1,2.68,1.62,1.62,0,0,1-1.14.51A1.1,1.1,0,0,1,134.41,250.77Z" transform="translate(-31.83 -11.68)"/><path class="cls-1" d="M159.79,234.55a6.08,6.08,0,0,1-2.35-3.5,11,11,0,0,1-.76-4.32,18.33,18.33,0,0,1,.89-5.86A28.43,28.43,0,0,1,165,208.53a19,19,0,0,1,3.62-2.73,7.83,7.83,0,0,1,3.88-1,3.73,3.73,0,0,1,3,1.27,4.32,4.32,0,0,1,.83,3.44,11.62,11.62,0,0,1-3.18,6.62,42.93,42.93,0,0,1-5.85,5.4,12.45,12.45,0,0,1-6.11,2.36c-.51.08-.85.47-1,1.14a7.07,7.07,0,0,0-.13,1.53,7.26,7.26,0,0,0,.51,2.93c.51,2.37,1.95,3.35,4.33,2.92a26.06,26.06,0,0,0,5.47-2,46.08,46.08,0,0,0,9.16-6.49l9-8.53,2.42-2.29a1.25,1.25,0,0,1,1.91,0,1.53,1.53,0,0,1,.38,1.91,5.47,5.47,0,0,1-1,1.27,173.78,173.78,0,0,1-12.72,12,42.68,42.68,0,0,1-9,5.86,17,17,0,0,1-6.49,1.65A7,7,0,0,1,159.79,234.55Zm11.9-22.2a5.89,5.89,0,0,0,1.14-2.93q-.12-1.26-1.14-1a5.22,5.22,0,0,0-2.29.9,19.81,19.81,0,0,0-7.63,10c0,.42.08.63.25.63.42.17.68.22.76.13Q169.28,216.68,171.69,212.35Z" transform="translate(-31.83 -11.68)"/><path class="cls-1" d="M186.26,239.26a2,2,0,0,1-.57-1.46c0-2,0-3.52.12-4.46a122,122,0,0,1,3.31-15.52,107.58,107.58,0,0,1,7.76-20.61,10.86,10.86,0,0,0,.64-1.21,2.58,2.58,0,0,1,1-1.21,1.15,1.15,0,0,1,1.14-.13,4.74,4.74,0,0,1,.76.89v.51a4.09,4.09,0,0,1-.44,1.72,12.51,12.51,0,0,0-.57,1.34,122.31,122.31,0,0,0-5.86,15.52,145.72,145.72,0,0,0-3.69,14.12,2.34,2.34,0,0,0-.06.89,1.68,1.68,0,0,1-.06.77,1.48,1.48,0,0,0,.63.12.68.68,0,0,0,.7-.44,2.1,2.1,0,0,1,.32-.57c.93-1.61,1.48-2.55,1.65-2.8l4.59-8a41.53,41.53,0,0,1,5.85-7.51A20.28,20.28,0,0,1,206,209a3.24,3.24,0,0,1,1.4-.38,2.32,2.32,0,0,1,2.29,1.78,8.81,8.81,0,0,1,.51,4.45c0,.94,0,2-.13,3.31s-.17,2.25-.25,2.93l.13,2.93q0,.38.51.63c.33.17.59.17.76,0l2.42-2.29,4.2-4.07a11.12,11.12,0,0,1,2.41-1.53,7.45,7.45,0,0,1,1.28-.25,2.62,2.62,0,0,1,2.54,1.65c.17.34.34.72.51,1.15s.34.8.51,1.14a13.52,13.52,0,0,0,1.27,2.17,2.92,2.92,0,0,0,2.16,1.14,4,4,0,0,0,1.15-.25,12.54,12.54,0,0,0,4.33-2.42q4.44-3.69,8.52-7.38a1.36,1.36,0,0,0,.51-.64,2.75,2.75,0,0,1,1.4-.63,1.24,1.24,0,0,1,1.14.63,1.58,1.58,0,0,1,.51,1.15,1.84,1.84,0,0,1-.63,1.27,9.1,9.1,0,0,1-1.78,1.78l-7.64,6.49a23.39,23.39,0,0,1-4.58,2.8,8.48,8.48,0,0,1-2.93.51,6.13,6.13,0,0,1-5.34-3.18,5.69,5.69,0,0,1-.89-1.72,3.42,3.42,0,0,0-1.4-1.84,12.94,12.94,0,0,0-3.31,2.67,34.7,34.7,0,0,1-2.54,2.54,16.62,16.62,0,0,1-2,2.17,8.37,8.37,0,0,1-2.42,1.52l-1,.26a2.61,2.61,0,0,1-2.17-1.28,8.54,8.54,0,0,1-.76-2.8,22.08,22.08,0,0,1-.13-2.92c.17-2.55.26-4.46.26-5.73a4,4,0,0,1,.12-.89,3.47,3.47,0,0,0,.13-.89c0-.76-.3-1.19-.89-1.27h-.25a1.55,1.55,0,0,0-1.21.83l-.83,1.2a75.35,75.35,0,0,0-5.6,8.28L192.17,235a14.1,14.1,0,0,1-2.79,4.07,2.32,2.32,0,0,1-1.66.76A2,2,0,0,1,186.26,239.26Z" transform="translate(-31.83 -11.68)"/><path class="cls-1" d="M232.13,270.88a36.88,36.88,0,0,1,.38-5.34,256.24,256.24,0,0,1,11.58-53.19q1.14-3.56,3.94-10.43l1.66-4.33a31.4,31.4,0,0,1,1.9-3.69,1.32,1.32,0,0,1,1.28-.76c1,0,1.35.63,1,1.9a1.9,1.9,0,0,1-.25.77,277.43,277.43,0,0,0-14.38,47.71c-.08.43-.27,1.27-.57,2.55a11.77,11.77,0,0,0-.32,3.56,2.53,2.53,0,0,0,1.34-1.4c.21-.59.36-1,.44-1.15a175.94,175.94,0,0,1,11.58-22.52,55.55,55.55,0,0,1,10.18-13.1,34.63,34.63,0,0,1,5.22-4.2,16.41,16.41,0,0,1,2.92-1.4,6.45,6.45,0,0,1,1.91-.38q2.81,0,3.82,3.43a9.31,9.31,0,0,1,.51,3.18,17.87,17.87,0,0,1-.13,2.23c-.08.64-.17,1.17-.25,1.59v.26c0,.42.12.7.38.82a1,1,0,0,0,.89-.06,19.68,19.68,0,0,0,2.29-1l8.91-3.43a7.53,7.53,0,0,1,1.52-.51,4.2,4.2,0,0,1,1.28-.26h.12a1.44,1.44,0,0,1,1.08.45,2.1,2.1,0,0,1,.58,1v.26a1.4,1.4,0,0,1-1,1.4q-5.22,1.78-6.62,2.41c-1.7.68-3,1.24-3.82,1.66l-3.81,1.65a8.22,8.22,0,0,0-4.33,4.71,33.82,33.82,0,0,1-10.94,15,21.64,21.64,0,0,1-3.44,2.17,3.77,3.77,0,0,1-1.91.51,3,3,0,0,1-2.29-1,3.67,3.67,0,0,1-.89-2.61,8.12,8.12,0,0,1,1.4-4.45,26.59,26.59,0,0,1,4.71-5.73,63.5,63.5,0,0,1,9.42-7.5,5.7,5.7,0,0,0,2.92-4.71c.09-.68.21-1.48.39-2.42a14.71,14.71,0,0,0,.25-2.42,11.89,11.89,0,0,0-.25-1.78,1.54,1.54,0,0,0-2.17-1.14,18.88,18.88,0,0,0-4.83,3.31,58,58,0,0,0-11,13.48,161.25,161.25,0,0,0-18.32,42.25q-.37,1.4-1,3.18c-.42,1-1,1.52-1.78,1.52C232.64,272.91,232.13,272.23,232.13,270.88Zm26.72-32.19q7.25-5.22,9.41-11.2c.43-.17.51-.38.26-.64s-.34-.08-.51.26q-4.2,2.16-8.91,8c-.34.5-.64,1-.89,1.39s-.47.77-.64,1c-.17.6-.12,1,.13,1.15A.77.77,0,0,0,258.85,238.69Z" transform="translate(-31.83 -11.68)"/><path class="cls-1" d="M291.93,234.74a6.18,6.18,0,0,1-4.07-1.46,6.6,6.6,0,0,1-2.29-3.88,11.32,11.32,0,0,1-.26-3.31,24.15,24.15,0,0,1,6-13.87,7.73,7.73,0,0,1,3.56-2.8,3.71,3.71,0,0,1,1.66-.38c.85.17,1.31.6,1.4,1.27v.51c0,.68-.26,1.06-.77,1.15a5.52,5.52,0,0,0-2.92,1.4,21,21,0,0,0-2.55,3.43,24.56,24.56,0,0,0-2.54,6.49,11.74,11.74,0,0,0-.51,3.69,5.54,5.54,0,0,0,.83,3.31,2.86,2.86,0,0,0,2.48,1.15,3.84,3.84,0,0,0,2-.64,4.84,4.84,0,0,0,1.66-1.78,9.62,9.62,0,0,0,1.52-4.58,7.19,7.19,0,0,0-1.14-3.69,17.37,17.37,0,0,1-1.27-2.55v-.38a1.37,1.37,0,0,1,.38-1,2,2,0,0,1,.89-.51h3.94c1.53.17,3.9-.21,7.13-1.14l7-2.55,2-.51a1.91,1.91,0,0,1,1.66,1,1.49,1.49,0,0,1,.12.64,1.43,1.43,0,0,1-1.14,1.4l-3.44,1.27L309,217.88a31.48,31.48,0,0,1-6.93,1.59,6.34,6.34,0,0,0-1.66.32.85.85,0,0,0-.38.83,6.73,6.73,0,0,0,.13,1.4,15.13,15.13,0,0,1,.25,2.29,12.07,12.07,0,0,1-1.14,5,10.3,10.3,0,0,1-3.82,4.46A7.12,7.12,0,0,1,291.93,234.74Z" transform="translate(-31.83 -11.68)"/><path class="cls-1" d="M309,241.23c0-.34,0-.84-.07-1.52a7.82,7.82,0,0,1,.07-1.79,73.9,73.9,0,0,1,5.6-20.35l4.07-9.55a4.6,4.6,0,0,0,.44-.82,4.63,4.63,0,0,1,.58-1,1.45,1.45,0,0,1,1.52-.38c.77.25,1.06.68.89,1.27a7.41,7.41,0,0,1-.63,2.8c-.68,1.7-1.78,4.24-3.31,7.64a85.44,85.44,0,0,0-4.07,11.7,10.81,10.81,0,0,0-.51,2.55,3.42,3.42,0,0,0,.38,1.52h-.13l.13.13,5-10.05a34.35,34.35,0,0,1,6.11-8.27,17.62,17.62,0,0,1,2.93-2.42,3.42,3.42,0,0,1,1.52-.38,2.7,2.7,0,0,1,2.42,1.53,8.63,8.63,0,0,1,.7,1.46,9.47,9.47,0,0,0,.7,1.46c.93,1.53,2,2.29,3.05,2.29a5.09,5.09,0,0,0,2.17-.63,33.38,33.38,0,0,0,6.74-4.84,7.91,7.91,0,0,1,1.65-1.27.78.78,0,0,1,.51-.13,1.72,1.72,0,0,1,1,.38,1.24,1.24,0,0,1,.38,1.53,4.32,4.32,0,0,1-1.14,1.65,27.9,27.9,0,0,1-8.4,6,6.38,6.38,0,0,1-2.93.64,6.17,6.17,0,0,1-5.21-2.8l-1.91-3a2.81,2.81,0,0,0-2.16,1.27,33.39,33.39,0,0,0-5.73,8.14l-2.42,4.84q-.51,1.27-3.69,7.51a31.44,31.44,0,0,1-2.29,3.94,2,2,0,0,1-1.78,1A2,2,0,0,1,309,241.23Z" transform="translate(-31.83 -11.68)"/><path class="cls-1" d="M343.2,230.16a2.5,2.5,0,0,1-1.91-.82,3.79,3.79,0,0,1-.89-2.23,12.09,12.09,0,0,1,.13-2q2.42-9.54,7.89-14.88a9.88,9.88,0,0,1,1.91-1.66,6.58,6.58,0,0,1,4.2-1.65,6.13,6.13,0,0,1,3.81,1.52,3.12,3.12,0,0,0,1.15.64c.25,0,.64-.34,1.14-1a40.91,40.91,0,0,0,2.8-3.69l1.66-2.29,1.91-2.67a2,2,0,0,1,2.29-.64c.84.51,1.06,1.36.63,2.55l-1.65,3.43a68.43,68.43,0,0,0-5.09,12.73,28.28,28.28,0,0,0-1.27,6.87,1.15,1.15,0,0,0,.38.95.74.74,0,0,0,.89.07c1.53-.68,2.67-1.23,3.43-1.66a44.66,44.66,0,0,0,4.71-3.43,34.82,34.82,0,0,0,3.18-2.8l3.06-2.67c1.35-1.1,2.07-1.7,2.16-1.78a1,1,0,0,1,1.53.12,1.58,1.58,0,0,1,.51,1.91c0,.09-.26.38-.77.89a73.27,73.27,0,0,1-13.1,10.82c-2.38,1.61-4.41,2.41-6.11,2.41-2.12,0-3.18-1.22-3.18-3.69a41.54,41.54,0,0,1,.51-5.34q.25-1.4,1.14-4.83a4.29,4.29,0,0,0-2.22,1.46,12.93,12.93,0,0,1-1,1.21,85.23,85.23,0,0,1-8.9,9.41,17.18,17.18,0,0,1-3.44,2.42A3.33,3.33,0,0,1,343.2,230.16Zm2.29-5a81.89,81.89,0,0,0,10.95-11.83,1.48,1.48,0,0,0,.5-.64,1.35,1.35,0,0,0,.13-.64,1.25,1.25,0,0,0-.63-1.14,3.11,3.11,0,0,0-1.79-.64,4.23,4.23,0,0,0-1,.26,5.09,5.09,0,0,0-2,1.27,22.82,22.82,0,0,0-7.51,13.49c.17.08.26.17.26.25A1.19,1.19,0,0,0,345.49,225.2Z" transform="translate(-31.83 -11.68)"/><path class="cls-1" d="M406.57,214.51a2.41,2.41,0,0,1-.51,1.53,29.85,29.85,0,0,1-1.91,3.18q-2.55,3.18-8.91,12l-7.51,10.18a28.22,28.22,0,0,1-4.83,5.09,5.44,5.44,0,0,1-3.18,1.4c-1.53,0-2.67-1.1-3.44-3.31a7.54,7.54,0,0,1-.63-2c-.09-1.1-.13-2.5-.13-4.19A91,91,0,0,1,377.68,221c.26-1.53.38-2.33.38-2.42a2.87,2.87,0,0,0-.63-1.9,2.39,2.39,0,0,1-.26-.64,1.81,1.81,0,0,1,.64-1.27,22.83,22.83,0,0,0,3.56-7.89q6.12-19.09,14-31.94c.59-.93,1.74-2.67,3.43-5.22.26-.33,1-1.14,2.3-2.41a2.32,2.32,0,0,1,2.67-.51,2.15,2.15,0,0,1,1.14,2.54,15.81,15.81,0,0,1-1,3.57c-.59,1.52-1.57,3.81-2.92,6.87a301.86,301.86,0,0,1-15.14,26.84,24.41,24.41,0,0,0-2.68,5.6A124.37,124.37,0,0,0,379,235.13c-.18,1.69-.26,3-.26,3.81a13.53,13.53,0,0,0,.51,3.95,1.57,1.57,0,0,0,.83,1,.9.9,0,0,0,1.08-.25,42.45,42.45,0,0,0,3.43-3.69q6-7.64,18.07-24.43a11.25,11.25,0,0,1,1.66-2.29c.33-.34.89-.38,1.65-.13A1.08,1.08,0,0,1,406.57,214.51Zm-16.8-20.23a3.75,3.75,0,0,0,.26,1.15v0h.12l7.38-14.38,3.44-6.87a2,2,0,0,0-.76-.26c-.35,0-.77.34-1.28,1a108.44,108.44,0,0,0-8.78,17.81A3.46,3.46,0,0,0,389.77,194.28Zm.32,1s.06,0,.06.13H390C390,195.34,390,195.3,390.09,195.3Zm10.75-21.5.13.38v-.13Z" transform="translate(-31.83 -11.68)"/></svg>